<svg width="110" height="94" viewBox="0 0 110 94" fill="none" xmlns="http://www.w3.org/2000/svg">
<path d="M2.19378 75.0743C5.5191 65.0864 4.87418 57.0596 4 54C10.4 70.4 21 81.8333 25.5 85.5C19.4463 81.5651 11.1022 80.0543 5.23391 79.6242C3.03765 79.4633 1.49814 77.1637 2.19378 75.0743Z" fill="#181107" stroke="#181107"/>
<path d="M64.2046 2.60401C64.1347 2.56895 64.0665 2.53427 64 2.5C64.0683 2.53462 64.1365 2.56929 64.2046 2.60401C69.5295 5.27652 84.4978 10.2039 105.425 12.1341C107.58 12.3329 108.879 14.6435 107.908 16.5772C103.799 24.7642 98.0103 37.631 96.3329 51.0896C96.2717 52.3059 96.1565 53.4472 96 54.5C96.0795 53.3606 96.1916 52.223 96.3329 51.0896C96.9866 38.0895 91.4667 16.5103 64.2046 2.60401Z" fill="#181107"/>
<path d="M64 2.5C69.1378 5.14672 84.2233 10.1786 105.425 12.1341C107.58 12.3329 108.879 14.6435 107.908 16.5772C103.453 25.4536 97.0234 39.8313 96 54.5C97.8333 42.1667 94 17.7 64 2.5Z" stroke="#181107"/>
<circle cx="50" cy="47" r="43.5" fill="#AFBD45" stroke="#181107" stroke-width="7"/>
<circle cx="50" cy="47" r="36.5" fill="#AFBD45" stroke="#70792C" stroke-width="7"/>
<path d="M48.1143 76.8106C37.7702 50.6003 42.5466 27.6272 47.8831 15.7081C48.8378 13.5758 51.6859 13.6746 52.6092 15.8207C63.3932 40.8853 58.4497 64.4341 52.9124 76.9833C51.9422 79.1821 48.9966 79.0461 48.1143 76.8106Z" fill="#181107" stroke="#181107"/>
<path d="M2.19378 75.0743C5.5191 65.0864 4.87418 57.0596 4 54C10.4 70.4 21 81.8333 25.5 85.5C19.4463 81.5651 11.1022 80.0543 5.23391 79.6242C3.03765 79.4633 1.49814 77.1637 2.19378 75.0743Z" fill="#181107" stroke="#181107"/>
<circle cx="50" cy="47" r="43.5" fill="#AFBD45" stroke="#181107" stroke-width="7"/>
<circle cx="50" cy="47" r="36.5" fill="#AFBD45" stroke="#70792C" stroke-width="7"/>
<path d="M48.1143 76.8106C37.7702 50.6003 42.5466 27.6272 47.8831 15.7081C48.8378 13.5758 51.6859 13.6746 52.6092 15.8207C63.3932 40.8853 58.4497 64.4341 52.9124 76.9833C51.9422 79.1821 48.9966 79.0461 48.1143 76.8106Z" fill="#181107" stroke="#181107"/>
<circle cx="64" cy="27" r="10" fill="white"/>
</svg>
