<svg width="110" height="94" viewBox="0 0 110 94" fill="none" xmlns="http://www.w3.org/2000/svg">
<path d="M1.69378 75.0743C5.0191 65.0864 4.37418 57.0596 3.5 54C9.9 70.4 20.5 81.8333 25 85.5C18.9463 81.5651 10.6022 80.0543 4.73391 79.6242C2.53765 79.4633 0.998144 77.1637 1.69378 75.0743Z" fill="#181107" stroke="#181107"/>
<circle cx="49.5" cy="47" r="43.5" fill="#AFBD45" stroke="#181107" stroke-width="7"/>
<circle cx="49.5" cy="47" r="36.5" fill="#AFBD45" stroke="#70792C" stroke-width="7"/>
<path d="M1.69378 75.0743C5.0191 65.0864 4.37418 57.0596 3.5 54C9.9 70.4 20.5 81.8333 25 85.5C18.9463 81.5651 10.6022 80.0543 4.73391 79.6242C2.53765 79.4633 0.998144 77.1637 1.69378 75.0743Z" fill="#181107" stroke="#181107"/>
<path d="M63.7046 2.60401C63.6347 2.56895 63.5665 2.53427 63.5 2.5C63.5683 2.53462 63.6365 2.56929 63.7046 2.60401C69.0295 5.27652 83.9978 10.2039 104.925 12.1341C107.08 12.3329 108.379 14.6435 107.408 16.5772C103.299 24.7642 97.5103 37.631 95.8329 51.0896C95.7717 52.3059 95.6565 53.4472 95.5 54.5C95.5795 53.3606 95.6916 52.223 95.8329 51.0896C96.4866 38.0895 90.9667 16.5103 63.7046 2.60401Z" fill="#181107"/>
<path d="M63.5 2.5C68.6378 5.14672 83.7233 10.1786 104.925 12.1341C107.08 12.3329 108.379 14.6435 107.408 16.5772C102.953 25.4536 96.5234 39.8313 95.5 54.5C97.3333 42.1667 93.5 17.7 63.5 2.5Z" stroke="#181107"/>
<circle cx="49.5" cy="47" r="43.5" fill="#AFBD45" stroke="#181107" stroke-width="7"/>
<circle cx="49.5" cy="47" r="36.5" fill="#AFBD45" stroke="#70792C" stroke-width="7"/>
<path d="M79 46.9831C79 62.9993 66.0163 75.9831 50 75.9831C33.9837 75.9831 21 62.9993 21 46.9831C21 30.9668 33.9837 17.9831 50 17.9831C66.0163 17.9831 79 30.9668 79 46.9831Z" fill="black"/>
<circle cx="63.5" cy="27" r="10" fill="white"/>
</svg>
