<svg width="90" height="90" viewBox="0 0 90 90" fill="none" xmlns="http://www.w3.org/2000/svg">
<path d="M47.6357 15.1754C29.4978 3.08345 17.9817 20.3577 20.8607 27.8431C-2.40189 32.6799 6.75344 51.5472 14.2389 60.3762C4.33505 88.0149 42.7414 90.894 47.6357 81.969C76.714 97.8037 84.4874 71.7004 80.7446 60.3762C96.8672 43.102 83.4317 29.7625 74.9865 27.8431C77.8656 21.5093 66.6373 3.37135 47.6357 15.1754Z" fill="#70792C"/>
<ellipse cx="37.0875" cy="30.7914" rx="6.90968" ry="9.78872" transform="rotate(-20.4384 37.0875 30.7914)" fill="#AFBD45"/>
<ellipse cx="22.8125" cy="45.465" rx="6.90968" ry="9.78872" transform="rotate(-43.2658 22.8125 45.465)" fill="#AFBD45"/>
<ellipse cx="58.5331" cy="30.4917" rx="6.90968" ry="9.78872" transform="rotate(27.0924 58.5331 30.4917)" fill="#AFBD45"/>
<ellipse cx="72.803" cy="45.5224" rx="6.90968" ry="9.78871" transform="rotate(40.9811 72.803 45.5224)" fill="#AFBD45"/>
<path d="M44.4688 49.0066C45.3187 48.5387 46.0286 48.1771 46.5279 47.9295C46.7921 47.7989 47.0599 47.6713 47.3276 47.5467L47.3311 47.5467C47.5144 47.4638 47.7175 47.4206 47.9236 47.4206C48.1297 47.4206 48.3328 47.4638 48.5161 47.5467C48.7861 47.6706 49.0539 47.7982 49.3194 47.9295C52.2599 49.3881 55.0377 51.0869 57.6162 53.0034C62.0885 56.353 66.9252 61.2765 66.9252 67.0764C66.9252 72.3341 62.0384 76.2109 57.0167 76.2109C53.054 76.2109 49.8566 74.3485 47.9236 71.494C45.9889 74.3485 42.7932 76.2109 38.8305 76.2109C33.8106 76.2109 28.922 72.3341 28.922 67.0749C28.922 61.2749 33.7605 56.35 38.2311 53.0049C40.1988 51.5425 42.2834 50.2063 44.4688 49.0066Z" fill="#AFBD45"/>
</svg>
