<svg width="90" height="90" viewBox="0 0 90 90" fill="none" xmlns="http://www.w3.org/2000/svg">
<path d="M0 28.0522L13.6605 33.744L7.68403 39.4359L0 28.0522Z" fill="#F8F4E5"/>
<path d="M26.6826 4L35.4491 15.9229L27.393 17.716L26.6826 4Z" fill="#F8F4E5"/>
<path d="M90 27.8247L84.2396 41.4564L78.5778 35.4515L90 27.8247Z" fill="#F8F4E5"/>
<path d="M70.2267 4.03857L68.8925 18.7772L61.6705 14.7822L70.2267 4.03857Z" fill="#F8F4E5"/>
<path d="M47.9873 16.5269C30.0579 4.57396 18.6742 21.6496 21.5201 29.049C-1.47507 33.8302 7.575 52.4806 14.9744 61.2081C5.18442 88.5291 43.1492 91.375 47.9873 82.5526C76.7313 98.2053 84.4153 72.4021 80.7156 61.2081C96.6528 44.1325 83.3718 30.9463 75.0237 29.049C77.8696 22.788 66.7705 4.85856 47.9873 16.5269Z" fill="#792B2B"/>
<ellipse cx="37.5604" cy="31.9634" rx="6.83025" ry="9.67618" transform="rotate(-20.4384 37.5604 31.9634)" fill="#B96868"/>
<ellipse cx="23.4495" cy="46.4683" rx="6.83025" ry="9.67618" transform="rotate(-43.2658 23.4495 46.4683)" fill="#B96868"/>
<ellipse cx="58.7595" cy="31.6671" rx="6.83025" ry="9.67618" transform="rotate(27.0924 58.7595 31.6671)" fill="#B96868"/>
<ellipse cx="72.8653" cy="46.525" rx="6.83025" ry="9.67618" transform="rotate(40.9811 72.8653 46.525)" fill="#B96868"/>
<path d="M44.8568 49.9692C45.6969 49.5066 46.3987 49.1493 46.8922 48.9045C47.1535 48.7753 47.4181 48.6492 47.6828 48.5261L47.6862 48.5261C47.8674 48.4441 48.0682 48.4014 48.2719 48.4014C48.4756 48.4014 48.6764 48.4441 48.8576 48.5261C49.1245 48.6485 49.3892 48.7747 49.6516 48.9045C52.5583 50.3463 55.3042 52.0256 57.853 53.92C62.2739 57.2311 67.0551 62.098 67.0551 67.8313C67.0551 73.0285 62.2244 76.8607 57.2605 76.8607C53.3434 76.8607 50.1827 75.0197 48.2719 72.1981C46.3594 75.0197 43.2005 76.8607 39.2833 76.8607C34.3211 76.8607 29.4887 73.0285 29.4887 67.8298C29.4887 62.0965 34.2716 57.2281 38.6908 53.9215C40.6359 52.4759 42.6965 51.1551 44.8568 49.9692Z" fill="#B96868"/>
<path d="M43.8275 60.4958L48.0964 75.8639H51.5115L48.0964 64.1955H51.5115L48.0964 46.8353H45.535L48.0964 60.4958H43.8275Z" fill="#792B2B"/>
</svg>
