<svg width="90" height="90" viewBox="0 0 90 90" fill="none" xmlns="http://www.w3.org/2000/svg">
<path d="M0 27.9004L13.5743 33.5564L7.63555 39.2123L0 27.9004Z" fill="#151515"/>
<path d="M26.5143 4L35.2254 15.8477L27.2202 17.6295L26.5143 4Z" fill="#151515"/>
<path d="M89.4322 27.6744L83.7082 41.2201L78.0821 35.2531L89.4322 27.6744Z" fill="#151515"/>
<path d="M69.7837 4.03836L68.4579 18.684L61.2815 14.7142L69.7837 4.03836Z" fill="#151515"/>
<path d="M47.6846 16.4478C29.8683 4.57032 18.5564 21.5382 21.3844 28.891C-1.46573 33.642 7.52725 52.1747 14.88 60.8472C5.15174 87.9958 42.877 90.8238 47.6846 82.057C76.2472 97.6109 83.8827 71.9705 80.2064 60.8472C96.0431 43.8793 82.8458 30.7763 74.5504 28.891C77.3784 22.6694 66.3493 4.85312 47.6846 16.4478Z" fill="#B96868"/>
<ellipse cx="37.3234" cy="31.7869" rx="6.78715" ry="9.61514" transform="rotate(-20.4384 37.3234 31.7869)" fill="#792B2B"/>
<ellipse cx="23.3016" cy="46.2003" rx="6.78715" ry="9.61514" transform="rotate(-43.2658 23.3016 46.2003)" fill="#792B2B"/>
<ellipse cx="58.3888" cy="31.4926" rx="6.78715" ry="9.61514" transform="rotate(27.0924 58.3888 31.4926)" fill="#792B2B"/>
<ellipse cx="72.4056" cy="46.2567" rx="6.78715" ry="9.61514" transform="rotate(40.9811 72.4056 46.2567)" fill="#792B2B"/>
<path d="M44.5738 49.6792C45.4086 49.2196 46.106 48.8644 46.5964 48.6212C46.856 48.4929 47.119 48.3675 47.382 48.2452L47.3854 48.2452C47.5654 48.1638 47.7649 48.1213 47.9674 48.1213C48.1698 48.1213 48.3693 48.1638 48.5494 48.2452C48.8146 48.3668 49.0777 48.4922 49.3384 48.6212C52.2267 50.054 54.9553 51.7226 57.4881 53.6051C61.881 56.8953 66.6321 61.7315 66.6321 67.4286C66.632 72.5931 61.8318 76.4011 56.8993 76.4011C53.0068 76.4011 49.8661 74.5717 47.9674 71.7679C46.067 74.5717 42.9279 76.4011 39.0355 76.4011C34.1046 76.4011 29.3027 72.593 29.3027 67.4271C29.3027 61.73 34.0554 56.8923 38.4467 53.6066C40.3795 52.1701 42.4271 50.8576 44.5738 49.6792Z" fill="#792B2B"/>
<path d="M43.5509 60.1394L47.7929 75.4105H51.1865L47.7929 63.8158H51.1865L47.7929 46.5651H45.2477L47.7929 60.1394H43.5509Z" fill="#B96868"/>
</svg>
